<svg xmlns="http://www.w3.org/2000/svg" version="1.1" xmlns:xlink="http://www.w3.org/1999/xlink" xmlns:svgjs="http://svgjs.com/svgjs" width="1440" height="560" preserveAspectRatio="none" viewBox="0 0 1440 560"><g mask="url(&quot;#SvgjsMask1000&quot;)" fill="none"><rect width="1440" height="560" x="0" y="0" fill="#0e2a47"></rect><path d="M-76.58 399.82L-76.58 399.82" stroke="#132e65" stroke-width="1.5"></path><path d="M-76.58 399.82L-40.88 502.02" stroke="#132e65" stroke-width="1.5"></path><path d="M-76.58 399.82L83.1 349.57" stroke="#132e65" stroke-width="1.5"></path><path d="M-40.88 502.02L-40.88 502.02" stroke="#132e65" stroke-width="1.5"></path><path d="M-40.88 502.02L101.37 556.12" stroke="#132e65" stroke-width="1.5"></path><path d="M-40.88 502.02L-55.23 654.44" stroke="#132e65" stroke-width="1.5"></path><path d="M-40.88 502.02L83.1 349.57" stroke="#132e65" stroke-width="1.5"></path><path d="M-55.23 654.44L-55.23 654.44" stroke="#132e65" stroke-width="1.5"></path><path d="M-55.23 654.44L96.06 666.82" stroke="#132e65" stroke-width="1.5"></path><path d="M-55.23 654.44L101.37 556.12" stroke="#132e65" stroke-width="1.5"></path><path d="M-55.23 654.44L-76.58 399.82" stroke="#132e65" stroke-width="1.5"></path><path d="M-55.23 654.44L202.58 695.89" stroke="#132e65" stroke-width="1.5"></path><path d="M-55.23 654.44L83.1 349.57" stroke="#132e65" stroke-width="1.5"></path><path d="M83.1 349.57L83.1 349.57" stroke="#132e65" stroke-width="1.5"></path><path d="M83.1 349.57L230.86 371.88" stroke="#132e65" stroke-width="1.5"></path><path d="M83.1 349.57L101.37 556.12" stroke="#132e65" stroke-width="1.5"></path><path d="M101.37 556.12L101.37 556.12" stroke="#132e65" stroke-width="1.5"></path><path d="M101.37 556.12L96.06 666.82" stroke="#132e65" stroke-width="1.5"></path><path d="M101.37 556.12L202.58 695.89" stroke="#132e65" stroke-width="1.5"></path><path d="M96.06 666.82L96.06 666.82" stroke="#132e65" stroke-width="1.5"></path><path d="M96.06 666.82L202.58 695.89" stroke="#132e65" stroke-width="1.5"></path><path d="M96.06 666.82L-40.88 502.02" stroke="#132e65" stroke-width="1.5"></path><path d="M96.06 666.82L399.76 682.22" stroke="#132e65" stroke-width="1.5"></path><path d="M96.06 666.82L83.1 349.57" stroke="#132e65" stroke-width="1.5"></path><path d="M230.86 371.88L230.86 371.88" stroke="#132e65" stroke-width="1.5"></path><path d="M230.86 371.88L366.34 371.4" stroke="#132e65" stroke-width="1.5"></path><path d="M230.86 371.88L101.37 556.12" stroke="#132e65" stroke-width="1.5"></path><path d="M202.58 695.89L202.58 695.89" stroke="#132e65" stroke-width="1.5"></path><path d="M202.58 695.89L399.76 682.22" stroke="#132e65" stroke-width="1.5"></path><path d="M202.58 695.89L411.36 552.07" stroke="#132e65" stroke-width="1.5"></path><path d="M202.58 695.89L-40.88 502.02" stroke="#132e65" stroke-width="1.5"></path><path d="M366.34 371.4L366.34 371.4" stroke="#132e65" stroke-width="1.5"></path><path d="M366.34 371.4L411.36 552.07" stroke="#132e65" stroke-width="1.5"></path><path d="M366.34 371.4L553.48 340.94" stroke="#132e65" stroke-width="1.5"></path><path d="M366.34 371.4L546.25 519.11" stroke="#132e65" stroke-width="1.5"></path><path d="M366.34 371.4L83.1 349.57" stroke="#132e65" stroke-width="1.5"></path><path d="M411.36 552.07L411.36 552.07" stroke="#132e65" stroke-width="1.5"></path><path d="M411.36 552.07L399.76 682.22" stroke="#132e65" stroke-width="1.5"></path><path d="M411.36 552.07L546.25 519.11" stroke="#132e65" stroke-width="1.5"></path><path d="M411.36 552.07L531.14 678.76" stroke="#132e65" stroke-width="1.5"></path><path d="M399.76 682.22L399.76 682.22" stroke="#132e65" stroke-width="1.5"></path><path d="M399.76 682.22L531.14 678.76" stroke="#132e65" stroke-width="1.5"></path><path d="M399.76 682.22L546.25 519.11" stroke="#132e65" stroke-width="1.5"></path><path d="M553.48 340.94L553.48 340.94" stroke="#132e65" stroke-width="1.5"></path><path d="M553.48 340.94L683.96 354.56" stroke="#132e65" stroke-width="1.5"></path><path d="M553.48 340.94L676.5 232.45" stroke="#132e65" stroke-width="1.5"></path><path d="M553.48 340.94L546.25 519.11" stroke="#132e65" stroke-width="1.5"></path><path d="M546.25 519.11L546.25 519.11" stroke="#132e65" stroke-width="1.5"></path><path d="M546.25 519.11L670.03 506.36" stroke="#132e65" stroke-width="1.5"></path><path d="M546.25 519.11L531.14 678.76" stroke="#132e65" stroke-width="1.5"></path><path d="M546.25 519.11L683.96 354.56" stroke="#132e65" stroke-width="1.5"></path><path d="M531.14 678.76L531.14 678.76" stroke="#132e65" stroke-width="1.5"></path><path d="M531.14 678.76L693.2 700.44" stroke="#132e65" stroke-width="1.5"></path><path d="M531.14 678.76L670.03 506.36" stroke="#132e65" stroke-width="1.5"></path><path d="M531.14 678.76L787.7 703.97" stroke="#132e65" stroke-width="1.5"></path><path d="M676.5 232.45L676.5 232.45" stroke="#132e65" stroke-width="1.5"></path><path d="M676.5 232.45L683.96 354.56" stroke="#132e65" stroke-width="1.5"></path><path d="M676.5 232.45L670.03 506.36" stroke="#132e65" stroke-width="1.5"></path><path d="M676.5 232.45L546.25 519.11" stroke="#132e65" stroke-width="1.5"></path><path d="M683.96 354.56L683.96 354.56" stroke="#132e65" stroke-width="1.5"></path><path d="M670.03 506.36L670.03 506.36" stroke="#132e65" stroke-width="1.5"></path><path d="M670.03 506.36L796.22 552.47" stroke="#132e65" stroke-width="1.5"></path><path d="M670.03 506.36L683.96 354.56" stroke="#132e65" stroke-width="1.5"></path><path d="M670.03 506.36L693.2 700.44" stroke="#132e65" stroke-width="1.5"></path><path d="M693.2 700.44L693.2 700.44" stroke="#132e65" stroke-width="1.5"></path><path d="M693.2 700.44L787.7 703.97" stroke="#132e65" stroke-width="1.5"></path><path d="M693.2 700.44L796.22 552.47" stroke="#132e65" stroke-width="1.5"></path><path d="M796.22 552.47L796.22 552.47" stroke="#132e65" stroke-width="1.5"></path><path d="M796.22 552.47L787.7 703.97" stroke="#132e65" stroke-width="1.5"></path><path d="M787.7 703.97L787.7 703.97" stroke="#132e65" stroke-width="1.5"></path><path d="M787.7 703.97L1010.55 703.97" stroke="#132e65" stroke-width="1.5"></path><path d="M787.7 703.97L670.03 506.36" stroke="#132e65" stroke-width="1.5"></path><path d="M991.75 -99.66L991.75 -99.66" stroke="#132e65" stroke-width="1.5"></path><path d="M991.75 -99.66L1007.66 62.18" stroke="#132e65" stroke-width="1.5"></path><path d="M991.75 -99.66L1156.9 -84.27" stroke="#132e65" stroke-width="1.5"></path><path d="M991.75 -99.66L1145.71 68.52" stroke="#132e65" stroke-width="1.5"></path><path d="M991.75 -99.66L996.64 206.69" stroke="#132e65" stroke-width="1.5"></path><path d="M991.75 -99.66L1289.02 99.58" stroke="#132e65" stroke-width="1.5"></path><path d="M1007.66 62.18L1007.66 62.18" stroke="#132e65" stroke-width="1.5"></path><path d="M1007.66 62.18L1145.71 68.52" stroke="#132e65" stroke-width="1.5"></path><path d="M1007.66 62.18L996.64 206.69" stroke="#132e65" stroke-width="1.5"></path><path d="M1007.66 62.18L1156.9 -84.27" stroke="#132e65" stroke-width="1.5"></path><path d="M1007.66 62.18L1154.79 235.83" stroke="#132e65" stroke-width="1.5"></path><path d="M996.64 206.69L996.64 206.69" stroke="#132e65" stroke-width="1.5"></path><path d="M996.64 206.69L984.23 356.68" stroke="#132e65" stroke-width="1.5"></path><path d="M996.64 206.69L1154.79 235.83" stroke="#132e65" stroke-width="1.5"></path><path d="M996.64 206.69L1110.6 356.57" stroke="#132e65" stroke-width="1.5"></path><path d="M996.64 206.69L1145.71 68.52" stroke="#132e65" stroke-width="1.5"></path><path d="M996.64 206.69L1281.18 259.37" stroke="#132e65" stroke-width="1.5"></path><path d="M984.23 356.68L984.23 356.68" stroke="#132e65" stroke-width="1.5"></path><path d="M984.23 356.68L1110.6 356.57" stroke="#132e65" stroke-width="1.5"></path><path d="M984.23 356.68L1154.79 235.83" stroke="#132e65" stroke-width="1.5"></path><path d="M984.23 356.68L1153.43 550.39" stroke="#132e65" stroke-width="1.5"></path><path d="M984.23 356.68L796.22 552.47" stroke="#132e65" stroke-width="1.5"></path><path d="M1010.55 703.97L1010.55 703.97" stroke="#132e65" stroke-width="1.5"></path><path d="M1010.55 703.97L1143.64 696.91" stroke="#132e65" stroke-width="1.5"></path><path d="M1010.55 703.97L1153.43 550.39" stroke="#132e65" stroke-width="1.5"></path><path d="M1156.9 -84.27L1156.9 -84.27" stroke="#132e65" stroke-width="1.5"></path><path d="M1156.9 -84.27L1145.71 68.52" stroke="#132e65" stroke-width="1.5"></path><path d="M1145.71 68.52L1145.71 68.52" stroke="#132e65" stroke-width="1.5"></path><path d="M1145.71 68.52L1289.02 99.58" stroke="#132e65" stroke-width="1.5"></path><path d="M1145.71 68.52L1154.79 235.83" stroke="#132e65" stroke-width="1.5"></path><path d="M1154.79 235.83L1154.79 235.83" stroke="#132e65" stroke-width="1.5"></path><path d="M1154.79 235.83L1281.18 259.37" stroke="#132e65" stroke-width="1.5"></path><path d="M1154.79 235.83L1110.6 356.57" stroke="#132e65" stroke-width="1.5"></path><path d="M1154.79 235.83L1289.02 99.58" stroke="#132e65" stroke-width="1.5"></path><path d="M1110.6 356.57L1110.6 356.57" stroke="#132e65" stroke-width="1.5"></path><path d="M1110.6 356.57L1301.63 399.44" stroke="#132e65" stroke-width="1.5"></path><path d="M1110.6 356.57L1281.18 259.37" stroke="#132e65" stroke-width="1.5"></path><path d="M1110.6 356.57L1153.43 550.39" stroke="#132e65" stroke-width="1.5"></path><path d="M1153.43 550.39L1153.43 550.39" stroke="#132e65" stroke-width="1.5"></path><path d="M1153.43 550.39L1272.5 521.13" stroke="#132e65" stroke-width="1.5"></path><path d="M1153.43 550.39L1143.64 696.91" stroke="#132e65" stroke-width="1.5"></path><path d="M1153.43 550.39L1258.68 658.12" stroke="#132e65" stroke-width="1.5"></path><path d="M1143.64 696.91L1143.64 696.91" stroke="#132e65" stroke-width="1.5"></path><path d="M1143.64 696.91L1258.68 658.12" stroke="#132e65" stroke-width="1.5"></path><path d="M1143.64 696.91L1272.5 521.13" stroke="#132e65" stroke-width="1.5"></path><path d="M1143.64 696.91L1400.35 644.95" stroke="#132e65" stroke-width="1.5"></path><path d="M1289.02 99.58L1289.02 99.58" stroke="#132e65" stroke-width="1.5"></path><path d="M1289.02 99.58L1401.72 100.95" stroke="#132e65" stroke-width="1.5"></path><path d="M1289.02 99.58L1281.18 259.37" stroke="#132e65" stroke-width="1.5"></path><path d="M1289.02 99.58L1434.21 201.35" stroke="#132e65" stroke-width="1.5"></path><path d="M1289.02 99.58L1420.8 -52.16" stroke="#132e65" stroke-width="1.5"></path><path d="M1281.18 259.37L1281.18 259.37" stroke="#132e65" stroke-width="1.5"></path><path d="M1281.18 259.37L1301.63 399.44" stroke="#132e65" stroke-width="1.5"></path><path d="M1281.18 259.37L1434.21 201.35" stroke="#132e65" stroke-width="1.5"></path><path d="M1281.18 259.37L1415.4 374.52" stroke="#132e65" stroke-width="1.5"></path><path d="M1301.63 399.44L1301.63 399.44" stroke="#132e65" stroke-width="1.5"></path><path d="M1301.63 399.44L1415.4 374.52" stroke="#132e65" stroke-width="1.5"></path><path d="M1301.63 399.44L1272.5 521.13" stroke="#132e65" stroke-width="1.5"></path><path d="M1272.5 521.13L1272.5 521.13" stroke="#132e65" stroke-width="1.5"></path><path d="M1258.68 658.12L1258.68 658.12" stroke="#132e65" stroke-width="1.5"></path><path d="M1258.68 658.12L1272.5 521.13" stroke="#132e65" stroke-width="1.5"></path><path d="M1258.68 658.12L1400.35 644.95" stroke="#132e65" stroke-width="1.5"></path><path d="M1420.8 -52.16L1420.8 -52.16" stroke="#132e65" stroke-width="1.5"></path><path d="M1420.8 -52.16L1401.72 100.95" stroke="#132e65" stroke-width="1.5"></path><path d="M1420.8 -52.16L1599.74 -39.76" stroke="#132e65" stroke-width="1.5"></path><path d="M1401.72 100.95L1401.72 100.95" stroke="#132e65" stroke-width="1.5"></path><path d="M1401.72 100.95L1434.21 201.35" stroke="#132e65" stroke-width="1.5"></path><path d="M1401.72 100.95L1599.96 92.69" stroke="#132e65" stroke-width="1.5"></path><path d="M1401.72 100.95L1281.18 259.37" stroke="#132e65" stroke-width="1.5"></path><path d="M1434.21 201.35L1434.21 201.35" stroke="#132e65" stroke-width="1.5"></path><path d="M1434.21 201.35L1600.75 220.64" stroke="#132e65" stroke-width="1.5"></path><path d="M1415.4 374.52L1415.4 374.52" stroke="#132e65" stroke-width="1.5"></path><path d="M1415.4 374.52L1433.37 505.15" stroke="#132e65" stroke-width="1.5"></path><path d="M1415.4 374.52L1554.36 398.29" stroke="#132e65" stroke-width="1.5"></path><path d="M1415.4 374.52L1434.21 201.35" stroke="#132e65" stroke-width="1.5"></path><path d="M1433.37 505.15L1433.37 505.15" stroke="#132e65" stroke-width="1.5"></path><path d="M1433.37 505.15L1400.35 644.95" stroke="#132e65" stroke-width="1.5"></path><path d="M1433.37 505.15L1554.36 398.29" stroke="#132e65" stroke-width="1.5"></path><path d="M1433.37 505.15L1272.5 521.13" stroke="#132e65" stroke-width="1.5"></path><path d="M1433.37 505.15L1301.63 399.44" stroke="#132e65" stroke-width="1.5"></path><path d="M1400.35 644.95L1400.35 644.95" stroke="#132e65" stroke-width="1.5"></path><path d="M1400.35 644.95L1272.5 521.13" stroke="#132e65" stroke-width="1.5"></path><path d="M1599.74 -39.76L1599.74 -39.76" stroke="#132e65" stroke-width="1.5"></path><path d="M1599.74 -39.76L1599.96 92.69" stroke="#132e65" stroke-width="1.5"></path><path d="M1599.74 -39.76L1401.72 100.95" stroke="#132e65" stroke-width="1.5"></path><path d="M1599.74 -39.76L1600.75 220.64" stroke="#132e65" stroke-width="1.5"></path><path d="M1599.74 -39.76L1434.21 201.35" stroke="#132e65" stroke-width="1.5"></path><path d="M1599.96 92.69L1599.96 92.69" stroke="#132e65" stroke-width="1.5"></path><path d="M1599.96 92.69L1600.75 220.64" stroke="#132e65" stroke-width="1.5"></path><path d="M1600.75 220.64L1600.75 220.64" stroke="#132e65" stroke-width="1.5"></path><path d="M1600.75 220.64L1554.36 398.29" stroke="#132e65" stroke-width="1.5"></path><path d="M1600.75 220.64L1401.72 100.95" stroke="#132e65" stroke-width="1.5"></path><path d="M1600.75 220.64L1415.4 374.52" stroke="#132e65" stroke-width="1.5"></path><path d="M1554.36 398.29L1554.36 398.29" stroke="#132e65" stroke-width="1.5"></path><path d="M1554.36 398.29L1434.21 201.35" stroke="#132e65" stroke-width="1.5"></path><path d="M1554.36 398.29L1301.63 399.44" stroke="#132e65" stroke-width="1.5"></path><path d="M1589.84 696.26L1589.84 696.26" stroke="#132e65" stroke-width="1.5"></path><path d="M1589.84 696.26L1400.35 644.95" stroke="#132e65" stroke-width="1.5"></path><path d="M1589.84 696.26L1433.37 505.15" stroke="#132e65" stroke-width="1.5"></path><path d="M1589.84 696.26L1554.36 398.29" stroke="#132e65" stroke-width="1.5"></path><path d="M1589.84 696.26L1258.68 658.12" stroke="#132e65" stroke-width="1.5"></path><circle r="5" cx="-76.58" cy="399.82" fill="#132e65"></circle><circle r="5" cx="-40.88" cy="502.02" fill="#132e65"></circle><circle r="5" cx="-55.23" cy="654.44" fill="#132e65"></circle><circle r="5" cx="83.1" cy="349.57" fill="#132e65"></circle><circle r="5" cx="101.37" cy="556.12" fill="#132e65"></circle><circle r="5" cx="96.06" cy="666.82" fill="#132e65"></circle><circle r="5" cx="230.86" cy="371.88" fill="#132e65"></circle><circle r="5" cx="202.58" cy="695.89" fill="#132e65"></circle><circle r="5" cx="366.34" cy="371.4" fill="#132e65"></circle><circle r="5" cx="411.36" cy="552.07" fill="#132e65"></circle><circle r="5" cx="399.76" cy="682.22" fill="#132e65"></circle><circle r="5" cx="553.48" cy="340.94" fill="#132e65"></circle><circle r="5" cx="546.25" cy="519.11" fill="#132e65"></circle><circle r="5" cx="531.14" cy="678.76" fill="#132e65"></circle><circle r="5" cx="676.5" cy="232.45" fill="#132e65"></circle><circle r="5" cx="683.96" cy="354.56" fill="#132e65"></circle><circle r="5" cx="670.03" cy="506.36" fill="#132e65"></circle><circle r="5" cx="693.2" cy="700.44" fill="#132e65"></circle><circle r="5" cx="796.22" cy="552.47" fill="#132e65"></circle><circle r="5" cx="787.7" cy="703.97" fill="#132e65"></circle><circle r="5" cx="991.75" cy="-99.66" fill="#132e65"></circle><circle r="5" cx="1007.66" cy="62.18" fill="#132e65"></circle><circle r="5" cx="996.64" cy="206.69" fill="#132e65"></circle><circle r="5" cx="984.23" cy="356.68" fill="#132e65"></circle><circle r="5" cx="1010.55" cy="703.97" fill="#132e65"></circle><circle r="5" cx="1156.9" cy="-84.27" fill="#132e65"></circle><circle r="5" cx="1145.71" cy="68.52" fill="#132e65"></circle><circle r="5" cx="1154.79" cy="235.83" fill="#132e65"></circle><circle r="5" cx="1110.6" cy="356.57" fill="#132e65"></circle><circle r="5" cx="1153.43" cy="550.39" fill="#132e65"></circle><circle r="5" cx="1143.64" cy="696.91" fill="#132e65"></circle><circle r="5" cx="1289.02" cy="99.58" fill="#132e65"></circle><circle r="5" cx="1281.18" cy="259.37" fill="#132e65"></circle><circle r="5" cx="1301.63" cy="399.44" fill="#132e65"></circle><circle r="5" cx="1272.5" cy="521.13" fill="#132e65"></circle><circle r="5" cx="1258.68" cy="658.12" fill="#132e65"></circle><circle r="5" cx="1420.8" cy="-52.16" fill="#132e65"></circle><circle r="5" cx="1401.72" cy="100.95" fill="#132e65"></circle><circle r="5" cx="1434.21" cy="201.35" fill="#132e65"></circle><circle r="5" cx="1415.4" cy="374.52" fill="#132e65"></circle><circle r="5" cx="1433.37" cy="505.15" fill="#132e65"></circle><circle r="5" cx="1400.35" cy="644.95" fill="#132e65"></circle><circle r="5" cx="1599.74" cy="-39.76" fill="#132e65"></circle><circle r="5" cx="1599.96" cy="92.69" fill="#132e65"></circle><circle r="5" cx="1600.75" cy="220.64" fill="#132e65"></circle><circle r="5" cx="1554.36" cy="398.29" fill="#132e65"></circle><circle r="5" cx="1589.84" cy="696.26" fill="#132e65"></circle><path d="M233.08 491.49L233.08 491.49" stroke="hsl(228.5, 77.2%, 51.5%)" stroke-width="1.5"></path><path d="M233.08 491.49L372.58 528.39" stroke="hsl(228.5, 77.2%, 51.5%)" stroke-width="1.5"></path><path d="M233.08 491.49L194.77 642.96" stroke="hsl(228.5, 77.2%, 51.5%)" stroke-width="1.5"></path><path d="M233.08 491.49L51.87 512.96" stroke="hsl(228.5, 77.2%, 51.5%)" stroke-width="1.5"></path><path d="M233.08 491.49L350.61 668.07" stroke="hsl(228.5, 77.2%, 51.5%)" stroke-width="1.5"></path><path d="M233.08 491.49L103.13 674.71" stroke="hsl(228.5, 77.2%, 51.5%)" stroke-width="1.5"></path><path d="M233.08 491.49L-47.71 507.41" stroke="hsl(228.5, 77.2%, 51.5%)" stroke-width="1.5"></path><path d="M194.77 642.96L194.77 642.96" stroke="hsl(228.5, 77.2%, 51.5%)" stroke-width="1.5"></path><path d="M194.77 642.96L103.13 674.71" stroke="hsl(228.5, 77.2%, 51.5%)" stroke-width="1.5"></path><path d="M194.77 642.96L350.61 668.07" stroke="hsl(228.5, 77.2%, 51.5%)" stroke-width="1.5"></path><path d="M560.34 663.93L560.34 663.93" stroke="hsl(228.5, 77.2%, 51.5%)" stroke-width="1.5"></path><path d="M560.34 663.93L641.69 662.58" stroke="hsl(228.5, 77.2%, 51.5%)" stroke-width="1.5"></path><path d="M560.34 663.93L546.24 536.61" stroke="hsl(228.5, 77.2%, 51.5%)" stroke-width="1.5"></path><path d="M959.08 533.86L959.08 533.86" stroke="hsl(228.5, 77.2%, 51.5%)" stroke-width="1.5"></path><path d="M959.08 533.86L1010.85 640.58" stroke="hsl(228.5, 77.2%, 51.5%)" stroke-width="1.5"></path><path d="M959.08 533.86L974.66 387.39" stroke="hsl(228.5, 77.2%, 51.5%)" stroke-width="1.5"></path><path d="M959.08 533.86L795.77 524.77" stroke="hsl(228.5, 77.2%, 51.5%)" stroke-width="1.5"></path><path d="M959.08 533.86L858.9 379.58" stroke="hsl(228.5, 77.2%, 51.5%)" stroke-width="1.5"></path><path d="M959.08 533.86L1142.48 554.43" stroke="hsl(228.5, 77.2%, 51.5%)" stroke-width="1.5"></path><path d="M1292.36 523.3L1292.36 523.3" stroke="hsl(228.5, 77.2%, 51.5%)" stroke-width="1.5"></path><path d="M1292.36 523.3L1393.25 524.44" stroke="hsl(228.5, 77.2%, 51.5%)" stroke-width="1.5"></path><path d="M1292.36 523.3L1142.48 554.43" stroke="hsl(228.5, 77.2%, 51.5%)" stroke-width="1.5"></path><path d="M1539.18 236.6L1539.18 236.6" stroke="hsl(228.5, 77.2%, 51.5%)" stroke-width="1.5"></path><path d="M1539.18 236.6L1437.13 220.98" stroke="hsl(228.5, 77.2%, 51.5%)" stroke-width="1.5"></path><path d="M1539.18 236.6L1552.5 41.64" stroke="hsl(228.5, 77.2%, 51.5%)" stroke-width="1.5"></path><path d="M1539.18 236.6L1403.11 55.56" stroke="hsl(228.5, 77.2%, 51.5%)" stroke-width="1.5"></path><path d="M-47.71 507.41L-47.71 507.41" stroke="hsl(228.5, 77.2%, 51.5%)" stroke-width="1.5"></path><path d="M-47.71 507.41L51.87 512.96" stroke="hsl(228.5, 77.2%, 51.5%)" stroke-width="1.5"></path><path d="M-47.71 507.41L-95.11 689.41" stroke="hsl(228.5, 77.2%, 51.5%)" stroke-width="1.5"></path><path d="M-95.11 689.41L-95.11 689.41" stroke="hsl(228.5, 77.2%, 51.5%)" stroke-width="1.5"></path><path d="M-95.11 689.41L103.13 674.71" stroke="hsl(228.5, 77.2%, 51.5%)" stroke-width="1.5"></path><path d="M-95.11 689.41L51.87 512.96" stroke="hsl(228.5, 77.2%, 51.5%)" stroke-width="1.5"></path><path d="M-95.11 689.41L194.77 642.96" stroke="hsl(228.5, 77.2%, 51.5%)" stroke-width="1.5"></path><path d="M-95.11 689.41L233.08 491.49" stroke="hsl(228.5, 77.2%, 51.5%)" stroke-width="1.5"></path><path d="M-95.11 689.41L350.61 668.07" stroke="hsl(228.5, 77.2%, 51.5%)" stroke-width="1.5"></path><path d="M51.87 512.96L51.87 512.96" stroke="hsl(228.5, 77.2%, 51.5%)" stroke-width="1.5"></path><path d="M51.87 512.96L103.13 674.71" stroke="hsl(228.5, 77.2%, 51.5%)" stroke-width="1.5"></path><path d="M51.87 512.96L194.77 642.96" stroke="hsl(228.5, 77.2%, 51.5%)" stroke-width="1.5"></path><path d="M51.87 512.96L372.58 528.39" stroke="hsl(228.5, 77.2%, 51.5%)" stroke-width="1.5"></path><path d="M103.13 674.71L103.13 674.71" stroke="hsl(228.5, 77.2%, 51.5%)" stroke-width="1.5"></path><path d="M372.58 528.39L372.58 528.39" stroke="hsl(228.5, 77.2%, 51.5%)" stroke-width="1.5"></path><path d="M372.58 528.39L350.61 668.07" stroke="hsl(228.5, 77.2%, 51.5%)" stroke-width="1.5"></path><path d="M350.61 668.07L350.61 668.07" stroke="hsl(228.5, 77.2%, 51.5%)" stroke-width="1.5"></path><path d="M350.61 668.07L560.34 663.93" stroke="hsl(228.5, 77.2%, 51.5%)" stroke-width="1.5"></path><path d="M350.61 668.07L546.24 536.61" stroke="hsl(228.5, 77.2%, 51.5%)" stroke-width="1.5"></path><path d="M350.61 668.07L103.13 674.71" stroke="hsl(228.5, 77.2%, 51.5%)" stroke-width="1.5"></path><path d="M546.24 536.61L546.24 536.61" stroke="hsl(228.5, 77.2%, 51.5%)" stroke-width="1.5"></path><path d="M546.24 536.61L673.02 511.03" stroke="hsl(228.5, 77.2%, 51.5%)" stroke-width="1.5"></path><path d="M546.24 536.61L641.69 662.58" stroke="hsl(228.5, 77.2%, 51.5%)" stroke-width="1.5"></path><path d="M546.24 536.61L372.58 528.39" stroke="hsl(228.5, 77.2%, 51.5%)" stroke-width="1.5"></path><path d="M546.24 536.61L667.99 365.63" stroke="hsl(228.5, 77.2%, 51.5%)" stroke-width="1.5"></path><path d="M667.99 365.63L667.99 365.63" stroke="hsl(228.5, 77.2%, 51.5%)" stroke-width="1.5"></path><path d="M667.99 365.63L673.02 511.03" stroke="hsl(228.5, 77.2%, 51.5%)" stroke-width="1.5"></path><path d="M667.99 365.63L858.9 379.58" stroke="hsl(228.5, 77.2%, 51.5%)" stroke-width="1.5"></path><path d="M667.99 365.63L795.77 524.77" stroke="hsl(228.5, 77.2%, 51.5%)" stroke-width="1.5"></path><path d="M667.99 365.63L641.69 662.58" stroke="hsl(228.5, 77.2%, 51.5%)" stroke-width="1.5"></path><path d="M673.02 511.03L673.02 511.03" stroke="hsl(228.5, 77.2%, 51.5%)" stroke-width="1.5"></path><path d="M673.02 511.03L795.77 524.77" stroke="hsl(228.5, 77.2%, 51.5%)" stroke-width="1.5"></path><path d="M673.02 511.03L641.69 662.58" stroke="hsl(228.5, 77.2%, 51.5%)" stroke-width="1.5"></path><path d="M673.02 511.03L560.34 663.93" stroke="hsl(228.5, 77.2%, 51.5%)" stroke-width="1.5"></path><path d="M673.02 511.03L858.9 379.58" stroke="hsl(228.5, 77.2%, 51.5%)" stroke-width="1.5"></path><path d="M641.69 662.58L641.69 662.58" stroke="hsl(228.5, 77.2%, 51.5%)" stroke-width="1.5"></path><path d="M858.9 379.58L858.9 379.58" stroke="hsl(228.5, 77.2%, 51.5%)" stroke-width="1.5"></path><path d="M858.9 379.58L974.66 387.39" stroke="hsl(228.5, 77.2%, 51.5%)" stroke-width="1.5"></path><path d="M858.9 379.58L795.77 524.77" stroke="hsl(228.5, 77.2%, 51.5%)" stroke-width="1.5"></path><path d="M795.77 524.77L795.77 524.77" stroke="hsl(228.5, 77.2%, 51.5%)" stroke-width="1.5"></path><path d="M795.77 524.77L809.15 702.59" stroke="hsl(228.5, 77.2%, 51.5%)" stroke-width="1.5"></path><path d="M809.15 702.59L809.15 702.59" stroke="hsl(228.5, 77.2%, 51.5%)" stroke-width="1.5"></path><path d="M809.15 702.59L641.69 662.58" stroke="hsl(228.5, 77.2%, 51.5%)" stroke-width="1.5"></path><path d="M809.15 702.59L1010.85 640.58" stroke="hsl(228.5, 77.2%, 51.5%)" stroke-width="1.5"></path><path d="M974.66 387.39L974.66 387.39" stroke="hsl(228.5, 77.2%, 51.5%)" stroke-width="1.5"></path><path d="M974.66 387.39L1115.49 375.68" stroke="hsl(228.5, 77.2%, 51.5%)" stroke-width="1.5"></path><path d="M974.66 387.39L795.77 524.77" stroke="hsl(228.5, 77.2%, 51.5%)" stroke-width="1.5"></path><path d="M1010.85 640.58L1010.85 640.58" stroke="hsl(228.5, 77.2%, 51.5%)" stroke-width="1.5"></path><path d="M1010.85 640.58L1127.59 685.2" stroke="hsl(228.5, 77.2%, 51.5%)" stroke-width="1.5"></path><path d="M1106.18 195.5L1106.18 195.5" stroke="hsl(228.5, 77.2%, 51.5%)" stroke-width="1.5"></path><path d="M1106.18 195.5L1115.49 375.68" stroke="hsl(228.5, 77.2%, 51.5%)" stroke-width="1.5"></path><path d="M1115.49 375.68L1115.49 375.68" stroke="hsl(228.5, 77.2%, 51.5%)" stroke-width="1.5"></path><path d="M1115.49 375.68L1142.48 554.43" stroke="hsl(228.5, 77.2%, 51.5%)" stroke-width="1.5"></path><path d="M1115.49 375.68L1283.02 235.25" stroke="hsl(228.5, 77.2%, 51.5%)" stroke-width="1.5"></path><path d="M1142.48 554.43L1142.48 554.43" stroke="hsl(228.5, 77.2%, 51.5%)" stroke-width="1.5"></path><path d="M1142.48 554.43L1127.59 685.2" stroke="hsl(228.5, 77.2%, 51.5%)" stroke-width="1.5"></path><path d="M1142.48 554.43L1010.85 640.58" stroke="hsl(228.5, 77.2%, 51.5%)" stroke-width="1.5"></path><path d="M1142.48 554.43L1255.01 676.86" stroke="hsl(228.5, 77.2%, 51.5%)" stroke-width="1.5"></path><path d="M1127.59 685.2L1127.59 685.2" stroke="hsl(228.5, 77.2%, 51.5%)" stroke-width="1.5"></path><path d="M1127.59 685.2L1255.01 676.86" stroke="hsl(228.5, 77.2%, 51.5%)" stroke-width="1.5"></path><path d="M1127.59 685.2L959.08 533.86" stroke="hsl(228.5, 77.2%, 51.5%)" stroke-width="1.5"></path><path d="M1127.59 685.2L1292.36 523.3" stroke="hsl(228.5, 77.2%, 51.5%)" stroke-width="1.5"></path><path d="M1127.59 685.2L1405.32 682.99" stroke="hsl(228.5, 77.2%, 51.5%)" stroke-width="1.5"></path><path d="M1263.08 62.59L1263.08 62.59" stroke="hsl(228.5, 77.2%, 51.5%)" stroke-width="1.5"></path><path d="M1263.08 62.59L1403.11 55.56" stroke="hsl(228.5, 77.2%, 51.5%)" stroke-width="1.5"></path><path d="M1263.08 62.59L1283.02 235.25" stroke="hsl(228.5, 77.2%, 51.5%)" stroke-width="1.5"></path><path d="M1263.08 62.59L1106.18 195.5" stroke="hsl(228.5, 77.2%, 51.5%)" stroke-width="1.5"></path><path d="M1263.08 62.59L1415.05 -78.36" stroke="hsl(228.5, 77.2%, 51.5%)" stroke-width="1.5"></path><path d="M1263.08 62.59L1437.13 220.98" stroke="hsl(228.5, 77.2%, 51.5%)" stroke-width="1.5"></path><path d="M1283.02 235.25L1283.02 235.25" stroke="hsl(228.5, 77.2%, 51.5%)" stroke-width="1.5"></path><path d="M1283.02 235.25L1437.13 220.98" stroke="hsl(228.5, 77.2%, 51.5%)" stroke-width="1.5"></path><path d="M1283.02 235.25L1106.18 195.5" stroke="hsl(228.5, 77.2%, 51.5%)" stroke-width="1.5"></path><path d="M1283.02 235.25L1403.11 55.56" stroke="hsl(228.5, 77.2%, 51.5%)" stroke-width="1.5"></path><path d="M1283.02 235.25L1539.18 236.6" stroke="hsl(228.5, 77.2%, 51.5%)" stroke-width="1.5"></path><path d="M1255.01 676.86L1255.01 676.86" stroke="hsl(228.5, 77.2%, 51.5%)" stroke-width="1.5"></path><path d="M1255.01 676.86L1405.32 682.99" stroke="hsl(228.5, 77.2%, 51.5%)" stroke-width="1.5"></path><path d="M1255.01 676.86L1292.36 523.3" stroke="hsl(228.5, 77.2%, 51.5%)" stroke-width="1.5"></path><path d="M1255.01 676.86L1393.25 524.44" stroke="hsl(228.5, 77.2%, 51.5%)" stroke-width="1.5"></path><path d="M1255.01 676.86L1010.85 640.58" stroke="hsl(228.5, 77.2%, 51.5%)" stroke-width="1.5"></path><path d="M1415.05 -78.36L1415.05 -78.36" stroke="hsl(228.5, 77.2%, 51.5%)" stroke-width="1.5"></path><path d="M1415.05 -78.36L1403.11 55.56" stroke="hsl(228.5, 77.2%, 51.5%)" stroke-width="1.5"></path><path d="M1415.05 -78.36L1552.5 41.64" stroke="hsl(228.5, 77.2%, 51.5%)" stroke-width="1.5"></path><path d="M1415.05 -78.36L1612.02 -59.84" stroke="hsl(228.5, 77.2%, 51.5%)" stroke-width="1.5"></path><path d="M1403.11 55.56L1403.11 55.56" stroke="hsl(228.5, 77.2%, 51.5%)" stroke-width="1.5"></path><path d="M1403.11 55.56L1552.5 41.64" stroke="hsl(228.5, 77.2%, 51.5%)" stroke-width="1.5"></path><path d="M1437.13 220.98L1437.13 220.98" stroke="hsl(228.5, 77.2%, 51.5%)" stroke-width="1.5"></path><path d="M1437.13 220.98L1403.11 55.56" stroke="hsl(228.5, 77.2%, 51.5%)" stroke-width="1.5"></path><path d="M1437.13 220.98L1552.5 41.64" stroke="hsl(228.5, 77.2%, 51.5%)" stroke-width="1.5"></path><path d="M1393.25 524.44L1393.25 524.44" stroke="hsl(228.5, 77.2%, 51.5%)" stroke-width="1.5"></path><path d="M1393.25 524.44L1544.12 537.18" stroke="hsl(228.5, 77.2%, 51.5%)" stroke-width="1.5"></path><path d="M1393.25 524.44L1405.32 682.99" stroke="hsl(228.5, 77.2%, 51.5%)" stroke-width="1.5"></path><path d="M1393.25 524.44L1142.48 554.43" stroke="hsl(228.5, 77.2%, 51.5%)" stroke-width="1.5"></path><path d="M1405.32 682.99L1405.32 682.99" stroke="hsl(228.5, 77.2%, 51.5%)" stroke-width="1.5"></path><path d="M1405.32 682.99L1292.36 523.3" stroke="hsl(228.5, 77.2%, 51.5%)" stroke-width="1.5"></path><path d="M1612.02 -59.84L1612.02 -59.84" stroke="hsl(228.5, 77.2%, 51.5%)" stroke-width="1.5"></path><path d="M1612.02 -59.84L1552.5 41.64" stroke="hsl(228.5, 77.2%, 51.5%)" stroke-width="1.5"></path><path d="M1552.5 41.64L1552.5 41.64" stroke="hsl(228.5, 77.2%, 51.5%)" stroke-width="1.5"></path><path d="M1544.12 537.18L1544.12 537.18" stroke="hsl(228.5, 77.2%, 51.5%)" stroke-width="1.5"></path><path d="M1544.12 537.18L1610.01 711.14" stroke="hsl(228.5, 77.2%, 51.5%)" stroke-width="1.5"></path><path d="M1544.12 537.18L1405.32 682.99" stroke="hsl(228.5, 77.2%, 51.5%)" stroke-width="1.5"></path><path d="M1544.12 537.18L1292.36 523.3" stroke="hsl(228.5, 77.2%, 51.5%)" stroke-width="1.5"></path><path d="M1544.12 537.18L1539.18 236.6" stroke="hsl(228.5, 77.2%, 51.5%)" stroke-width="1.5"></path><path d="M1544.12 537.18L1255.01 676.86" stroke="hsl(228.5, 77.2%, 51.5%)" stroke-width="1.5"></path><path d="M1610.01 711.14L1610.01 711.14" stroke="hsl(228.5, 77.2%, 51.5%)" stroke-width="1.5"></path><path d="M1610.01 711.14L1405.32 682.99" stroke="hsl(228.5, 77.2%, 51.5%)" stroke-width="1.5"></path><path d="M1610.01 711.14L1393.25 524.44" stroke="hsl(228.5, 77.2%, 51.5%)" stroke-width="1.5"></path><path d="M1610.01 711.14L1255.01 676.86" stroke="hsl(228.5, 77.2%, 51.5%)" stroke-width="1.5"></path><circle r="25" cx="233.08" cy="491.49" fill="url(#SvgjsRadialGradient1001)"></circle><circle r="25" cx="194.77" cy="642.96" fill="url(#SvgjsRadialGradient1001)"></circle><circle r="25" cx="560.34" cy="663.93" fill="url(#SvgjsRadialGradient1001)"></circle><circle r="25" cx="959.08" cy="533.86" fill="url(#SvgjsRadialGradient1001)"></circle><circle r="25" cx="1292.36" cy="523.3" fill="url(#SvgjsRadialGradient1001)"></circle><circle r="25" cx="1539.18" cy="236.6" fill="url(#SvgjsRadialGradient1001)"></circle><circle r="5" cx="-47.71" cy="507.41" fill="#8b9ad9"></circle><circle r="5" cx="-95.11" cy="689.41" fill="#8b9ad9"></circle><circle r="5" cx="51.87" cy="512.96" fill="#8b9ad9"></circle><circle r="5" cx="103.13" cy="674.71" fill="#8b9ad9"></circle><circle r="5" cx="372.58" cy="528.39" fill="#8b9ad9"></circle><circle r="5" cx="350.61" cy="668.07" fill="#8b9ad9"></circle><circle r="5" cx="546.24" cy="536.61" fill="#8b9ad9"></circle><circle r="5" cx="667.99" cy="365.63" fill="#8b9ad9"></circle><circle r="5" cx="673.02" cy="511.03" fill="#8b9ad9"></circle><circle r="5" cx="641.69" cy="662.58" fill="#8b9ad9"></circle><circle r="5" cx="858.9" cy="379.58" fill="#8b9ad9"></circle><circle r="5" cx="795.77" cy="524.77" fill="#8b9ad9"></circle><circle r="5" cx="809.15" cy="702.59" fill="#8b9ad9"></circle><circle r="5" cx="974.66" cy="387.39" fill="#8b9ad9"></circle><circle r="5" cx="1010.85" cy="640.58" fill="#8b9ad9"></circle><circle r="5" cx="1106.18" cy="195.5" fill="#8b9ad9"></circle><circle r="5" cx="1115.49" cy="375.68" fill="#8b9ad9"></circle><circle r="5" cx="1142.48" cy="554.43" fill="#8b9ad9"></circle><circle r="5" cx="1127.59" cy="685.2" fill="#8b9ad9"></circle><circle r="5" cx="1263.08" cy="62.59" fill="#8b9ad9"></circle><circle r="5" cx="1283.02" cy="235.25" fill="#8b9ad9"></circle><circle r="5" cx="1255.01" cy="676.86" fill="#8b9ad9"></circle><circle r="5" cx="1415.05" cy="-78.36" fill="#8b9ad9"></circle><circle r="5" cx="1403.11" cy="55.56" fill="#8b9ad9"></circle><circle r="5" cx="1437.13" cy="220.98" fill="#8b9ad9"></circle><circle r="5" cx="1393.25" cy="524.44" fill="#8b9ad9"></circle><circle r="5" cx="1405.32" cy="682.99" fill="#8b9ad9"></circle><circle r="5" cx="1612.02" cy="-59.84" fill="#8b9ad9"></circle><circle r="5" cx="1552.5" cy="41.64" fill="#8b9ad9"></circle><circle r="5" cx="1544.12" cy="537.18" fill="#8b9ad9"></circle><circle r="5" cx="1610.01" cy="711.14" fill="#8b9ad9"></circle></g><defs><mask id="SvgjsMask1000"><rect width="1440" height="560" fill="#ffffff"></rect></mask><radialGradient id="SvgjsRadialGradient1001"><stop stop-color="#ffffff" offset="0.1"></stop><stop stop-color="#1735b3" offset="0.2"></stop><stop stop-color="rgba(23, 53, 179, 0)" offset="1"></stop></radialGradient></defs></svg>